{
  "accessors": [
    {
      "bufferView": 2,
      "componentType": 5126,
      "count": 33480,
      "max": [
        575.3404541015625,
        474.67562866210938,
        977.92041015625
      ],
      "min": [
        -575.3404541015625,
        -1.5255703146976884e-05,
        -977.92041015625
      ],
      "type": "VEC3"
    },
    {
      "bufferView": 2,
      "byteOffset": 401760,
      "componentType": 5126,
      "count": 33480,
      "max": [
        1,
        1,
        1
      ],
      "min": [
        -1,
        -1,
        -1
      ],
      "type": "VEC3"
    },
    {
      "bufferView": 3,
      "componentType": 5126,
      "count": 33480,
      "max": [
        1,
        1,
        1,
        1
      ],
      "min": [
        -1,
        -1,
        -1,
        -1
      ],
      "type": "VEC4"
    },
    {
      "bufferView": 1,
      "componentType": 5126,
      "count": 33480,
      "max": [
        0.99950850009918213,
        0.99687021970748901
      ],
      "min": [
        0.0020669701043516397,
        0.0038256600964814425
      ],
      "type": "VEC2"
    },
    {
      "bufferView": 0,
      "componentType": 5125,
      "count": 121782,
      "max": [
        33479
      ],
      "min": [
        0
      ],
      "type": "SCALAR"
    },
    {
      "bufferView": 2,
      "byteOffset": 803520,
      "componentType": 5126,
      "count": 14433,
      "max": [
        363.18948364257812,
        319.9232177734375,
        512.23590087890625
      ],
      "min": [
        -363.18927001953125,
        138.29055786132812,
        -449.50521850585938
      ],
      "type": "VEC3"
    },
    {
      "bufferView": 2,
      "byteOffset": 976716,
      "componentType": 5126,
      "count": 14433,
      "max": [
        1,
        1,
        1
      ],
      "min": [
        -1,
        -1,
        -1
      ],
      "type": "VEC3"
    },
    {
      "bufferView": 3,
      "byteOffset": 535680,
      "componentType": 5126,
      "count": 14433,
      "max": [
        1,
        0.99999809265136719,
        1,
        1
      ],
      "min": [
        -1,
        -0.99999529123306274,
        -1,
        -1
      ],
      "type": "VEC4"
    },
    {
      "bufferView": 1,
      "byteOffset": 267840,
      "componentType": 5126,
      "count": 14433,
      "max": [
        0.9993133544921875,
        0.99799001216888428
      ],
      "min": [
        0.0037329799961298704,
        0.0011901898542419076
      ],
      "type": "VEC2"
    },
    {
      "bufferView": 0,
      "byteOffset": 487128,
      "componentType": 5125,
      "count": 48951,
      "max": [
        14432
      ],
      "min": [
        0
      ],
      "type": "SCALAR"
    },
    {
      "bufferView": 2,
      "byteOffset": 1149912,
      "componentType": 5126,
      "count": 126,
      "max": [
        169.99259948730469,
        298.64227294921875,
        544.40667724609375
      ],
      "min": [
        -169.99234008789062,
        210.20382690429688,
        -104.03531646728516
      ],
      "type": "VEC3"
    },
    {
      "bufferView": 2,
      "byteOffset": 1151424,
      "componentType": 5126,
      "count": 126,
      "max": [
        0.0074394089169800282,
        0.58799618482589722,
        -0.80886363983154297
      ],
      "min": [
        -0.0074336780235171318,
        0.085787810385227203,
        -0.99631339311599731
      ],
      "type": "VEC3"
    },
    {
      "bufferView": 3,
      "byteOffset": 766608,
      "componentType": 5126,
      "count": 126,
      "max": [
        -0.99185305833816528,
        0.0024515585973858833,
        0.007728522177785635,
        1
      ],
      "min": [
        -1,
        -0.11843873560428619,
        -0.046901885420084,
        1
      ],
      "type": "VEC4"
    },
    {
      "bufferView": 1,
      "byteOffset": 383304,
      "componentType": 5126,
      "count": 126,
      "max": [
        0.99560546875,
        0.99141180515289307
      ],
      "min": [
        0.0035539900418370962,
        0.0043792696669697762
      ],
      "type": "VEC2"
    },
    {
      "bufferView": 0,
      "byteOffset": 682932,
      "componentType": 5125,
      "count": 276,
      "max": [
        125
      ],
      "min": [
        0
      ],
      "type": "SCALAR"
    },
    {
      "bufferView": 2,
      "byteOffset": 1152936,
      "componentType": 5126,
      "count": 618,
      "max": [
        332.23867797851562,
        300.30038452148438,
        503.641357421875
      ],
      "min": [
        -332.23867797851562,
        110.27293395996094,
        -592.17864990234375
      ],
      "type": "VEC3"
    },
    {
      "bufferView": 2,
      "byteOffset": 1160352,
      "componentType": 5126,
      "count": 618,
      "max": [
        0.99800240993499756,
        0.99968177080154419,
        0.61398774385452271
      ],
      "min": [
        -0.99741917848587036,
        -0.79282236099243164,
        -0.9996030330657959
      ],
      "type": "VEC3"
    },
    {
      "bufferView": 3,
      "byteOffset": 768624,
      "componentType": 5126,
      "count": 618,
      "max": [
        1,
        0.7111479640007019,
        0.99990987777709961,
        1
      ],
      "min": [
        -1,
        -0.71113163232803345,
        -0.99990993738174438,
        1
      ],
      "type": "VEC4"
    },
    {
      "bufferView": 1,
      "byteOffset": 384312,
      "componentType": 5126,
      "count": 618,
      "max": [
        0.99140530824661255,
        0.99116051197052002
      ],
      "min": [
        0.0085947206243872643,
        0.0088396100327372551
      ],
      "type": "VEC2"
    },
    {
      "bufferView": 0,
      "byteOffset": 684036,
      "componentType": 5125,
      "count": 2190,
      "max": [
        617
      ],
      "min": [
        0
      ],
      "type": "SCALAR"
    },
    {
      "bufferView": 2,
      "byteOffset": 1167768,
      "componentType": 5126,
      "count": 740,
      "max": [
        573.48797607421875,
        265.15573120117188,
        907.93524169921875
      ],
      "min": [
        -573.48797607421875,
        152.03741455078125,
        -892.7138671875
      ],
      "type": "VEC3"
    },
    {
      "bufferView": 2,
      "byteOffset": 1176648,
      "componentType": 5126,
      "count": 740,
      "max": [
        0.97360402345657349,
        0.9995574951171875,
        0.76590514183044434
      ],
      "min": [
        -0.97360402345657349,
        -0.8647727370262146,
        -1
      ],
      "type": "VEC3"
    },
    {
      "bufferView": 3,
      "byteOffset": 778512,
      "componentType": 5126,
      "count": 740,
      "max": [
        0.22660712897777557,
        0.81982624530792236,
        0.99627059698104858,
        1
      ],
      "min": [
        -1,
        -0.67460525035858154,
        -0.99987876415252686,
        -1
      ],
      "type": "VEC4"
    },
    {
      "bufferView": 1,
      "byteOffset": 389256,
      "componentType": 5126,
      "count": 740,
      "max": [
        0.97167116403579712,
        0.99068492650985718
      ],
      "min": [
        0.01812548004090786,
        0.016623141244053841
      ],
      "type": "VEC2"
    },
    {
      "bufferView": 0,
      "byteOffset": 692796,
      "componentType": 5125,
      "count": 3840,
      "max": [
        739
      ],
      "min": [
        0
      ],
      "type": "SCALAR"
    },
    {
      "bufferView": 2,
      "byteOffset": 1185528,
      "componentType": 5126,
      "count": 1726,
      "max": [
        68.457588195800781,
        320.85345458984375,
        -48.947463989257812
      ],
      "min": [
        40.870018005371094,
        285.09994506835938,
        -76.220726013183594
      ],
      "type": "VEC3"
    },
    {
      "bufferView": 2,
      "byteOffset": 1206240,
      "componentType": 5126,
      "count": 1726,
      "max": [
        0.9959787130355835,
        0.9996609091758728,
        0.99981606006622314
      ],
      "min": [
        -0.99597573280334473,
        -0.99940580129623413,
        -0.99999898672103882
      ],
      "type": "VEC3"
    },
    {
      "bufferView": 3,
      "byteOffset": 790352,
      "componentType": 5126,
      "count": 1726,
      "max": [
        0.99935275316238403,
        0.99999868869781494,
        0.99966078996658325,
        1
      ],
      "min": [
        -1,
        -0.99273687601089478,
        -0.99878209829330444,
        -1
      ],
      "type": "VEC4"
    },
    {
      "bufferView": 1,
      "byteOffset": 395176,
      "componentType": 5126,
      "count": 1726,
      "max": [
        0.98834234476089478,
        0.97875934839248657
      ],
      "min": [
        0.014791970141232014,
        0.018554689362645149
      ],
      "type": "VEC2"
    },
    {
      "bufferView": 0,
      "byteOffset": 708156,
      "componentType": 5125,
      "count": 9426,
      "max": [
        1725
      ],
      "min": [
        0
      ],
      "type": "SCALAR"
    },
    {
      "bufferView": 2,
      "byteOffset": 1226952,
      "componentType": 5126,
      "count": 46,
      "max": [
        143.94215393066406,
        186.49906921386719,
        -790.7874755859375
      ],
      "min": [
        -143.94215393066406,
        121.50107574462891,
        -803.23919677734375
      ],
      "type": "VEC3"
    },
    {
      "bufferView": 2,
      "byteOffset": 1227504,
      "componentType": 5126,
      "count": 46,
      "max": [
        0.35459965467453003,
        0.35098940134048462,
        -0.93501800298690796
      ],
      "min": [
        -0.35459965467453003,
        -0.35098910331726074,
        -0.99999994039535522
      ],
      "type": "VEC3"
    },
    {
      "bufferView": 3,
      "byteOffset": 817968,
      "componentType": 5126,
      "count": 46,
      "max": [
        -0.93501830101013184,
        8.7722837633918971e-05,
        0.35459968447685242,
        1
      ],
      "min": [
        -1,
        -8.7222069851122797e-05,
        -0.35459962487220764,
        1
      ],
      "type": "VEC4"
    },
    {
      "bufferView": 1,
      "byteOffset": 408984,
      "componentType": 5126,
      "count": 46,
      "max": [
        0.9863128662109375,
        0.99308907985687256
      ],
      "min": [
        0.013684989884495735,
        0.0069122295826673508
      ],
      "type": "VEC2"
    },
    {
      "bufferView": 0,
      "byteOffset": 745860,
      "componentType": 5125,
      "count": 132,
      "max": [
        45
      ],
      "min": [
        0
      ],
      "type": "SCALAR"
    },
    {
      "bufferView": 4,
      "componentType": 5126,
      "count": 1,
      "max": [
        1,
        0,
        0,
        0,
        0,
        1,
        0,
        0,
        0,
        0,
        1,
        0,
        0,
        0,
        0,
        1
      ],
      "min": [
        1,
        0,
        0,
        0,
        0,
        1,
        0,
        0,
        0,
        0,
        1,
        0,
        0,
        0,
        0,
        1
      ],
      "type": "MAT4"
    }
  ],
  "asset": {
    "extras": {
      "author": "Sorrie (https://sketchfab.com/gerbenbhoekstra)",
      "license": "CC-BY-4.0 (http://creativecommons.org/licenses/by/4.0/)",
      "source": "https://sketchfab.com/models/9c1219e62fa94d22a438fff36f047a71",
      "title": "Stinger"
    },
    "generator": "Sketchfab-3.20.7",
    "version": "2.0"
  },
  "bufferViews": [
    {
      "buffer": 0,
      "byteLength": 746388,
      "byteOffset": 0,
      "name": "floatBufferViews",
      "target": 34963
    },
    {
      "buffer": 0,
      "byteLength": 409352,
      "byteOffset": 746388,
      "byteStride": 8,
      "name": "floatBufferViews",
      "target": 34962
    },
    {
      "buffer": 0,
      "byteLength": 1228056,
      "byteOffset": 1155740,
      "byteStride": 12,
      "name": "floatBufferViews",
      "target": 34962
    },
    {
      "buffer": 0,
      "byteLength": 818704,
      "byteOffset": 2383796,
      "byteStride": 16,
      "name": "floatBufferViews",
      "target": 34962
    },
    {
      "buffer": 0,
      "byteLength": 64,
      "byteOffset": 3202500,
      "byteStride": 64,
      "name": "floatBufferViews"
    }
  ],
  "buffers": [
    {
      "byteLength": 3202564,
      "uri": "scene.bin"
    }
  ],
  "images": [
    {
      "uri": "textures/lumina_baseColor.jpeg"
    },
    {
      "uri": "textures/material_baseColor.jpeg"
    },
    {
      "uri": "textures/helmet_baseColor.jpeg"
    },
    {
      "uri": "textures/panels_baseColor.jpeg"
    },
    {
      "uri": "textures/glow_baseColor.jpeg"
    },
    {
      "uri": "textures/glass_baseColor.jpeg"
    },
    {
      "uri": "textures/glass_metallicRoughness.png"
    },
    {
      "uri": "textures/inner_baseColor.jpeg"
    }
  ],
  "materials": [
    {
      "doubleSided": true,
      "emissiveFactor": [
        0,
        0,
        0
      ],
      "name": "material",
      "pbrMetallicRoughness": {
        "baseColorFactor": [
          1,
          1,
          1,
          1
        ],
        "baseColorTexture": {
          "index": 1,
          "texCoord": 0
        },
        "metallicFactor": 0.5,
        "roughnessFactor": 0.19999999999999996
      }
    },
    {
      "doubleSided": true,
      "emissiveFactor": [
        0,
        0,
        0
      ],
      "name": "inner",
      "pbrMetallicRoughness": {
        "baseColorFactor": [
          1,
          1,
          1,
          1
        ],
        "baseColorTexture": {
          "index": 7,
          "texCoord": 0
        },
        "metallicFactor": 0,
        "roughnessFactor": 1
      }
    },
    {
      "doubleSided": true,
      "emissiveFactor": [
        0,
        0,
        0
      ],
      "name": "panels",
      "pbrMetallicRoughness": {
        "baseColorFactor": [
          1,
          1,
          1,
          1
        ],
        "baseColorTexture": {
          "index": 3,
          "texCoord": 0
        },
        "metallicFactor": 1,
        "roughnessFactor": 1
      }
    },
    {
      "alphaMode": "BLEND",
      "doubleSided": true,
      "emissiveFactor": [
        0,
        0,
        0
      ],
      "name": "glass",
      "pbrMetallicRoughness": {
        "baseColorFactor": [
          1,
          1,
          1,
          0.90000000000000002
        ],
        "baseColorTexture": {
          "index": 5,
          "texCoord": 0
        },
        "metallicFactor": 1,
        "metallicRoughnessTexture": {
          "index": 6,
          "texCoord": 0
        },
        "roughnessFactor": 1
      }
    },
    {
      "alphaMode": "BLEND",
      "doubleSided": true,
      "emissiveFactor": [
        0,
        0,
        0
      ],
      "name": "lumina",
      "pbrMetallicRoughness": {
        "baseColorFactor": [
          1,
          1,
          1,
          0.90000000000000002
        ],
        "baseColorTexture": {
          "index": 0,
          "texCoord": 0
        },
        "metallicFactor": 1,
        "roughnessFactor": 1
      }
    },
    {
      "doubleSided": true,
      "emissiveFactor": [
        0,
        0,
        0
      ],
      "name": "helmet",
      "pbrMetallicRoughness": {
        "baseColorFactor": [
          1,
          1,
          1,
          1
        ],
        "baseColorTexture": {
          "index": 2,
          "texCoord": 0
        },
        "metallicFactor": 0,
        "roughnessFactor": 0.59999999999999998
      }
    },
    {
      "doubleSided": true,
      "emissiveFactor": [
        0,
        0,
        0
      ],
      "name": "glow",
      "pbrMetallicRoughness": {
        "baseColorFactor": [
          1,
          1,
          1,
          1
        ],
        "baseColorTexture": {
          "index": 4,
          "texCoord": 0
        },
        "metallicFactor": 0,
        "roughnessFactor": 0.59999999999999998
      }
    }
  ],
  "meshes": [
    {
      "primitives": [
        {
          "attributes": {
            "NORMAL": 1,
            "POSITION": 0,
            "TANGENT": 2,
            "TEXCOORD_0": 3
          },
          "indices": 4,
          "material": 0,
          "mode": 4
        }
      ]
    },
    {
      "primitives": [
        {
          "attributes": {
            "NORMAL": 6,
            "POSITION": 5,
            "TANGENT": 7,
            "TEXCOORD_0": 8
          },
          "indices": 9,
          "material": 1,
          "mode": 4
        }
      ]
    },
    {
      "primitives": [
        {
          "attributes": {
            "NORMAL": 11,
            "POSITION": 10,
            "TANGENT": 12,
            "TEXCOORD_0": 13
          },
          "indices": 14,
          "material": 2,
          "mode": 4
        }
      ]
    },
    {
      "primitives": [
        {
          "attributes": {
            "NORMAL": 16,
            "POSITION": 15,
            "TANGENT": 17,
            "TEXCOORD_0": 18
          },
          "indices": 19,
          "material": 3,
          "mode": 4
        }
      ]
    },
    {
      "primitives": [
        {
          "attributes": {
            "NORMAL": 21,
            "POSITION": 20,
            "TANGENT": 22,
            "TEXCOORD_0": 23
          },
          "indices": 24,
          "material": 4,
          "mode": 4
        }
      ]
    },
    {
      "primitives": [
        {
          "attributes": {
            "NORMAL": 26,
            "POSITION": 25,
            "TANGENT": 27,
            "TEXCOORD_0": 28
          },
          "indices": 29,
          "material": 5,
          "mode": 4
        }
      ]
    },
    {
      "primitives": [
        {
          "attributes": {
            "NORMAL": 31,
            "POSITION": 30,
            "TANGENT": 32,
            "TEXCOORD_0": 33
          },
          "indices": 34,
          "material": 6,
          "mode": 4
        }
      ]
    }
  ],
  "nodes": [
    {
      "children": [
        1
      ],
      "name": "RootNode (gltf orientation matrix)",
      "rotation": [
        -0.70710678118654746,
        -0,
        -0,
        0.70710678118654757
      ]
    },
    {
      "children": [
        2
      ],
      "name": "RootNode (model correction matrix)"
    },
    {
      "children": [
        3
      ],
      "matrix": [
        1,
        0,
        0,
        0,
        0,
        -4.3711390063094768e-08,
        0.999999999999999,
        0,
        0,
        -0.999999999999999,
        -4.3711390063094768e-08,
        0,
        0,
        0,
        0,
        1
      ],
      "name": "Collada visual scene group"
    },
    {
      "children": [
        4
      ],
      "name": "RootNode"
    },
    {
      "children": [
        5,
        6,
        7,
        8,
        9,
        10,
        11,
        12
      ],
      "name": ""
    },
    {
      "name": "_rootJoint"
    },
    {
      "mesh": 0,
      "name": ""
    },
    {
      "mesh": 1,
      "name": ""
    },
    {
      "mesh": 2,
      "name": ""
    },
    {
      "mesh": 3,
      "name": ""
    },
    {
      "mesh": 4,
      "name": ""
    },
    {
      "mesh": 5,
      "name": ""
    },
    {
      "mesh": 6,
      "name": ""
    }
  ],
  "samplers": [
    {
      "magFilter": 9729,
      "minFilter": 9987,
      "wrapS": 10497,
      "wrapT": 10497
    }
  ],
  "scene": 0,
  "scenes": [
    {
      "name": "OSG_Scene",
      "nodes": [
        0
      ]
    }
  ],
  "skins": [
    {
      "inverseBindMatrices": 35,
      "joints": [
        5
      ],
      "skeleton": 5
    }
  ],
  "textures": [
    {
      "sampler": 0,
      "source": 0
    },
    {
      "sampler": 0,
      "source": 1
    },
    {
      "sampler": 0,
      "source": 2
    },
    {
      "sampler": 0,
      "source": 3
    },
    {
      "sampler": 0,
      "source": 4
    },
    {
      "sampler": 0,
      "source": 5
    },
    {
      "sampler": 0,
      "source": 6
    },
    {
      "sampler": 0,
      "source": 7
    }
  ]
}

